<svg xmlns="http://www.w3.org/2000/svg" xmlns:xlink="http://www.w3.org/1999/xlink"><symbol id="arrow-left" viewBox="0 0 39 23" fill="none" xmlns="http://www.w3.org/2000/svg"><path d="M57.8296 11.4018L2.82843 11.402M2.82843 11.402L12.8162 21.3897M2.82843 11.402L12.8162 1.41422" stroke-width="4"/></symbol><symbol id="arrow-right" viewBox="0 0 39 23" fill="none" xmlns="http://www.w3.org/2000/svg"><path d="M-19.0005 11.4018L36.0006 11.402M36.0006 11.402L26.0129 21.3897M36.0006 11.402L26.0129 1.41422" stroke-width="4" /></symbol><symbol id="flower" viewBox="0 0 14 14" xmlns="http://www.w3.org/2000/svg"><path d="M12.293 0.837371C13.4095 1.95386 13.4095 3.76405 12.293 4.88053C11.8327 5.34081 11.2546 5.61131 10.6557 5.69205C9.31592 5.87268 7.6897 5.7776 6.73374 6.73356C5.77778 7.68953 5.87281 9.31579 5.69213 10.6556C5.61136 11.2545 5.34083 11.8327 4.88054 12.293C3.76405 13.4095 1.95386 13.4095 0.837372 12.293C-0.279116 11.1765 -0.279116 9.36632 0.837373 8.24984C1.29767 7.78954 1.87588 7.51901 2.47477 7.43824C3.81458 7.25756 5.44084 7.3526 6.39681 6.39663C7.35277 5.44067 7.25769 3.81445 7.43832 2.47464C7.51906 1.8758 7.78956 1.29765 8.24984 0.837372C9.36633 -0.279117 11.1765 -0.279117 12.293 0.837371Z"/><path d="M12.293 12.293C11.1765 13.4095 9.36632 13.4095 8.24984 12.293C7.78956 11.8327 7.51906 11.2546 7.43832 10.6557C7.25769 9.31592 7.35277 7.6897 6.39681 6.73374C5.44084 5.77777 3.81458 5.87281 2.47477 5.69213C1.87588 5.61136 1.29767 5.34083 0.837373 4.88053C-0.279116 3.76404 -0.279115 1.95386 0.837373 0.837371C1.95386 -0.279117 3.76405 -0.279117 4.88053 0.837371C5.34083 1.29767 5.61136 1.87587 5.69213 2.47477C5.87281 3.81458 5.77777 5.44084 6.73374 6.39681C7.6897 7.35277 9.31592 7.25768 10.6557 7.43832C11.2546 7.51906 11.8327 7.78956 12.293 8.24984C13.4095 9.36632 13.4095 11.1765 12.293 12.293Z"/></symbol><symbol id="pin" viewBox="0 0 34 34" xmlns="http://www.w3.org/2000/svg"><ellipse cx="25.3311" cy="12.4171" rx="4.13882" ry="6.43382" transform="rotate(-46.9291 25.3311 12.4171)"/><path d="M10.0918 15.2563C11.3942 13.8631 13.6978 13.7153 16.1289 14.6343L13.7988 16.5591C12.5369 17.9095 13.2155 20.595 15.3145 22.5571C17.4135 24.5191 20.1381 25.0148 21.4004 23.6646L23.4531 21.4956C24.5225 23.8508 24.5255 26.1482 23.2275 27.5366C21.1496 29.7588 16.5246 28.8112 12.8975 25.4204C9.27034 22.0295 8.0141 17.4789 10.0918 15.2563Z"/><path d="M16.275 21.6601C17.9521 23.2279 20.0905 23.6658 21.0512 22.6382C21.706 21.7269 23.3156 19.5045 24.5156 17.9045C21.7156 16.3045 20.0156 14.2378 19.5156 13.4045L14.9777 16.9605C14.0171 17.9882 14.5979 20.0922 16.275 21.6601Z"/><path d="M12.5156 26.9045C12.0156 26.5711 10.9156 25.7045 10.5156 24.9045L7.51562 28.4045L6.98243 29.2043C6.39067 30.0919 7.41419 31.1653 8.32897 30.6165L9.51562 29.9045L12.5156 26.9045Z"/></symbol><symbol id="phone" viewBox="0 0 14 14" xmlns="http://www.w3.org/2000/svg"><path d="M1.40617 0C1.21081 0.000221479 1.01748 0.0403633 0.838783 0.119141C0.660102 0.197918 0.499802 0.313074 0.36808 0.457031C0.23631 0.601096 0.135543 0.771196 0.0731583 0.956055C0.0107916 1.14089 -0.0118128 1.337 0.00577545 1.53125C0.236858 3.70266 0.977315 5.7894 2.16691 7.62207C3.24764 9.31938 4.68983 10.7584 6.39054 11.8369C8.21851 13.02 10.2988 13.7592 12.4648 13.9941C12.66 14.0118 12.8572 13.9885 13.0429 13.9258C13.2286 13.8631 13.3994 13.7621 13.5439 13.6299C13.6882 13.4976 13.8032 13.3364 13.8818 13.1572C13.9602 12.978 14.0007 12.7844 13.9999 12.5889V10.4814C14.0085 10.1369 13.8892 9.80103 13.6659 9.53809C13.4427 9.27524 13.1308 9.10286 12.789 9.05469C12.1132 8.96573 11.4491 8.80132 10.8105 8.56348C10.5586 8.46902 10.2846 8.44789 10.0214 8.50391C9.75826 8.55997 9.51644 8.69106 9.32511 8.87988L8.43156 9.77148C6.66931 8.77142 5.20998 7.31539 4.20792 5.55664L5.10246 4.66406C5.29144 4.4732 5.4213 4.23214 5.47746 3.96973C5.5336 3.70701 5.51357 3.43309 5.41886 3.18164C5.18061 2.54437 5.01482 1.88236 4.9257 1.20801C4.87789 0.870409 4.70913 0.561183 4.45011 0.338867C4.19118 0.116678 3.85993 -0.00328661 3.51847 0H1.40617Z"/></symbol><symbol id="instagram" viewBox="0 0 12 12" xmlns="http://www.w3.org/2000/svg"><path d="M6.00195 0C7.56534 0 7.76611 0.00663303 8.3877 0.0361328C9.02258 0.0641569 9.46719 0.167505 9.86035 0.319336C10.2745 0.475368 10.652 0.721323 10.9639 1.03711L10.791 1.21289L10.9668 1.04004L11.0811 1.1582C11.3442 1.44542 11.5479 1.77917 11.6865 2.14551C11.8387 2.53712 11.9427 2.98432 11.9707 3.61914C11.9979 4.23859 12 4.43944 12 6.00098C12 7.56454 11.993 7.76475 11.9658 8.38379C11.9378 9.01924 11.8346 9.46403 11.6826 9.85742C11.3586 10.6954 10.6956 11.3585 9.85742 11.6826C9.46562 11.835 9.01819 11.9378 8.38281 11.9658C7.76364 11.9931 7.56379 12 6 12C4.43622 12 4.23629 11.9931 3.61719 11.9658C2.98188 11.9378 2.53692 11.8345 2.14355 11.6826C1.72911 11.5264 1.35199 11.28 1.04004 10.9639L1.21387 10.7891L1.03809 10.9619L1.03906 10.9639C0.722612 10.6519 0.47605 10.2757 0.317383 9.85645C0.165339 9.46504 0.0621828 9.01824 0.0341797 8.38379C0.00698275 7.76475 0 7.56454 0 6.00098C4.77443e-07 4.4381 0.00663226 4.23759 0.0361328 3.61621C0.0641658 2.98134 0.167454 2.53675 0.319336 2.14355C0.456107 1.78085 0.661668 1.44617 0.922852 1.15918L1.03711 1.04102L1.21387 1.21289L1.04004 1.03711C1.35238 0.718488 1.72772 0.475434 2.14551 0.317383C2.53699 0.165366 2.98435 0.0621929 3.61914 0.0341797C4.23825 0.0069894 4.43837 8.2604e-07 6.00195 0ZM6 3.1582C4.43119 3.15837 3.15837 4.43111 3.1582 6C3.1582 7.56903 4.43109 8.84261 6 8.84277C7.56914 8.84277 8.84277 7.56914 8.84277 6C8.84261 4.43101 7.56903 3.1582 6 3.1582ZM9.47363 1.2627C8.77646 1.26291 8.21119 1.82802 8.21094 2.52539C8.21094 3.22283 8.77628 3.78884 9.47363 3.78906C10.1713 3.78906 10.7373 3.22299 10.7373 2.52539C10.7371 1.82785 10.1711 1.2627 9.47363 1.2627Z"/></symbol>
<symbol id="arrow-down" viewBox="0 0 8 12" xmlns="http://www.w3.org/2000/svg">
<path d="M3.74976 0C3.33554 0 2.99976 0.335786 2.99976 0.75V8.84473L1.29858 7.0166C1.01643 6.71366 0.542153 6.69663 0.239014 6.97852C-0.0641465 7.26077 -0.0813251 7.7359 0.200928 8.03906L3.20093 11.2607L3.74976 11.8506L4.29858 11.2607L7.29858 8.03906C7.58083 7.7359 7.56366 7.26077 7.2605 6.97852C6.95736 6.69663 6.48309 6.71366 6.20093 7.0166L4.49976 8.84473V0.75C4.49976 0.335787 4.16397 1.54622e-06 3.74976 0Z"/>
</symbol>
<symbol id="youtube" viewBox="0 0 12 9" xmlns="http://www.w3.org/2000/svg">
  <path d="M6.00195 0C6.02594 9.06472e-05 8.4214 0.0156872 10.0078 0.129883L10.0293 0.131836C10.0471 0.134193 10.0671 0.137201 10.0889 0.139648C10.352 0.169289 10.8992 0.230677 11.3818 0.739258C11.7995 1.17196 11.901 2.0235 11.9111 2.11914L11.9121 2.12402C11.9157 2.16391 11.9999 3.11136 12 4.0625V4.95215C12 5.90318 11.9157 6.85074 11.9121 6.89062L11.9102 6.90234C11.8984 6.99609 11.7835 7.82875 11.3857 8.25684C10.9085 8.77664 10.3701 8.83315 10.1113 8.86035C10.0867 8.86288 10.0639 8.86554 10.0439 8.86816L10.0225 8.87012C8.43605 8.98432 6.04059 8.99991 6.0166 9H6.00977C5.888 8.99828 3.01559 8.95545 2.09961 8.86914L2.07227 8.86523C2.04361 8.86025 2.00095 8.85612 1.95215 8.85059C1.64346 8.8156 1.06994 8.75018 0.616211 8.25879C0.200839 7.82629 0.0991805 6.9918 0.0888672 6.89648L0.0878906 6.89062C0.0843206 6.85074 2.42154e-05 5.90318 0 4.95215V4.0625C4.91574e-06 3.11136 0.0843202 2.16382 0.0878906 2.12402L0.0898438 2.1123C0.101654 2.01875 0.216464 1.18589 0.614258 0.757812C1.09837 0.230518 1.64021 0.168406 1.90039 0.138672C1.9206 0.136339 1.93917 0.134082 1.95605 0.131836L1.97754 0.129883C3.57823 0.0156692 5.97406 9.06525e-05 5.99805 0H6.00195ZM5.12207 2.70605C4.96153 2.62583 4.77161 2.62869 4.61426 2.71387C4.45721 2.79911 4.36345 2.94935 4.36328 3.11621V5.88379C4.36328 6.0502 4.45687 6.20077 4.61328 6.28613C4.69493 6.33068 4.78527 6.35351 4.87598 6.35352C4.9591 6.35352 5.04248 6.33458 5.11914 6.29688L7.91113 4.9248C8.07675 4.84339 8.18069 4.68652 8.18164 4.51465C8.18231 4.34274 8.08009 4.18425 7.91504 4.10156L5.12207 2.70605Z"/>
</symbol>
<symbol id="facebook" viewBox="0 0 6 12" xmlns="http://www.w3.org/2000/svg">
  <path d="M4.90459 1.9925H6V0.0845C5.81102 0.0585 5.16107 0 4.40413 0C2.82476 0 1.74286 0.9935 1.74286 2.8195V4.5H0V6.633H1.74286V12H3.87968V6.6335H5.55204L5.81751 4.5005H3.87918V3.031C3.87968 2.4145 4.04566 1.9925 4.90459 1.9925Z"/>
</symbol>
<symbol id="tiktok" viewBox="0 0 10 12" xmlns="http://www.w3.org/2000/svg">
  <path d="M8.75469 2.56637C8.67682 2.52451 8.60101 2.47862 8.52755 2.42888C8.31393 2.282 8.11807 2.10893 7.94419 1.9134C7.50914 1.39568 7.34666 0.870457 7.28681 0.502725H7.28921C7.23922 0.19749 7.25989 0 7.26301 0H5.28148V7.9691C5.28148 8.0761 5.28148 8.18184 5.27715 8.28634C5.27715 8.29934 5.27595 8.31134 5.27523 8.32533C5.27523 8.33108 5.27523 8.33708 5.27403 8.34308C5.27403 8.34458 5.27403 8.34608 5.27403 8.34758C5.25314 8.63351 5.16501 8.90972 5.01739 9.15192C4.86978 9.39411 4.6672 9.59486 4.42747 9.73651C4.17763 9.88435 3.89505 9.96189 3.6076 9.9615C2.68438 9.9615 1.93613 9.17854 1.93613 8.21159C1.93613 7.24464 2.68438 6.46168 3.6076 6.46168C3.78237 6.46151 3.95605 6.49011 4.12222 6.54642L4.12462 4.44803C3.62019 4.38026 3.10773 4.42195 2.61957 4.57048C2.13141 4.71901 1.67814 4.97115 1.28836 5.31099C0.946824 5.61962 0.659692 5.98788 0.439887 6.39918C0.356242 6.54917 0.0406479 7.15189 0.0024305 8.13009C-0.0216056 8.68532 0.138715 9.26054 0.21515 9.49828V9.50328C0.263222 9.64327 0.449502 10.121 0.753077 10.5237C0.99787 10.8468 1.28708 11.1306 1.61141 11.3659V11.3609L1.61621 11.3659C2.57549 12.0439 3.63909 11.9994 3.63909 11.9994C3.82321 11.9917 4.43997 11.9994 5.14038 11.6542C5.91723 11.2714 6.35949 10.7012 6.35949 10.7012C6.64204 10.3605 6.8667 9.97222 7.02385 9.55302C7.20316 9.0628 7.26301 8.47483 7.26301 8.23984V4.01205C7.28705 4.02705 7.60721 4.24729 7.60721 4.24729C7.60721 4.24729 8.06846 4.55477 8.7881 4.75501C9.3044 4.89751 10 4.9275 10 4.9275V2.88161C9.75627 2.9091 9.26137 2.82911 8.75469 2.56637Z" />
</symbol>
</svg>